<?xml version="1.0" encoding="utf-8"?>
<!-- Generator: Adobe Illustrator 24.1.2, SVG Export Plug-In . SVG Version: 6.00 Build 0)  -->
<svg version="1.1" id="Layer_1" xmlns="http://www.w3.org/2000/svg" xmlns:xlink="http://www.w3.org/1999/xlink" x="0px" y="0px"
	 viewBox="0 0 500 500" style="enable-background:new 0 0 500 500;" xml:space="preserve">
<style type="text/css">
	.st0{fill:#FFFFFF;}
	.st1{fill:#F9B233;}
	.st2{fill:none;}
</style>
<rect x="533.4" y="-353.27" class="st0" width="1177.2" height="989.27"/>
<text transform="matrix(1 0 0 1 1343.8323 -267.3906)" style="font-family:'xeicon'; font-size:20px;"></text>
<circle class="st1" cx="1282.2" cy="244.1" r="180"/>
<circle class="st1" cx="1461.41" cy="100.95" r="180"/>
<path id="SVGID_x5F_2_x5F_" class="st2" d="M828.65-0.05c128.9,0.22,233.22,104.9,233,233.8c-0.22,128.9-104.9,233.22-233.8,233
	c-128.9-0.22-233.22-104.9-233-233.8C595.07,104.05,699.75-0.27,828.65-0.05z"/>
<text><textPath  xlink:href="#SVGID_x5F_2_x5F_" startOffset="100.995%">
<tspan  style="font-family:'NotoSansKR-Bold-KSCpc-EUC-H'; font-size:20.6961px; letter-spacing:200;">ITZY - 마.피.아. In the morning (English Ver.)</tspan></textPath>
</text>
<g>
	<path d="M1129.96-277.59l0.64-1.75l13.79,5.03l-0.64,1.75L1129.96-277.59z"/>
	<path d="M1135.53-287.63l-1.71,4.1l-1.46-0.61l4.13-9.91l1.46,0.61l-1.71,4.1l12.09,5.04l-0.71,1.72L1135.53-287.63z"/>
	<path d="M1149.98-290.92l-7.46-12.17l-3.05,6.34l-1.43-0.69l4.04-8.4l0.99,0.48l7.46,12.17l3.39-7.05l1.42,0.68l-4.37,9.1
		L1149.98-290.92z"/>
	<path d="M1153.57-308.31l-9.99-0.47l0.95-1.74l4.55,0.36c1.18,0.1,2.28,0.21,3.5,0.28l0.04-0.07c-0.71-0.99-1.37-1.92-2.1-2.82
		l-2.73-3.67l0.92-1.68l5.75,8.18l5,2.74l-0.9,1.63L1153.57-308.31z"/>
	<path d="M1161.34-320.33l2.2-3.46l0.95,0.6l-2.2,3.46L1161.34-320.33z"/>
	<path d="M1163.16-335.28l3.91-5.29l7.45,5.51l-3.91,5.29L1163.16-335.28z M1170.52-331.43l2.39-3.23l-5.75-4.25l-2.39,3.23
		L1170.52-331.43z M1175.12-342.39l-1.41,1.9l6.05,4.47l-0.78,1.06l-11.53-8.53l0.78-1.05l4.59,3.4l1.41-1.9L1175.12-342.39z"/>
	<path d="M1181.5-341.51c-0.52-0.42-0.58-1.09-0.21-1.54c0.37-0.45,1.03-0.52,1.55-0.1c0.51,0.42,0.55,1.07,0.19,1.52
		S1182.01-341.09,1181.5-341.51z"/>
	<path d="M1187.56-352.87c0.5-0.61,0.96-1.24,1.39-1.87l0.77,0.58c-1.69,2.63-3.97,5.22-5.7,7.18l-0.92-0.63
		c0.41-0.45,0.84-0.94,1.29-1.46l-5.27-4.72l-1.07,1.19l-0.79-0.71l5.42-6.05l0.79,0.71l-1.06,1.18L1187.56-352.87z M1185.22-350.02
		c0.51-0.59,1.02-1.21,1.54-1.84l-5.19-4.66l-1.6,1.79L1185.22-350.02z M1183.75-362.84l10.67,9.57l-0.88,0.98l-10.67-9.57
		L1183.75-362.84z"/>
	<path d="M1196.2-358.06c-0.48-0.47-0.47-1.14-0.07-1.55c0.4-0.41,1.07-0.43,1.55,0.04c0.47,0.46,0.45,1.12,0.05,1.53
		C1197.32-357.63,1196.66-357.6,1196.2-358.06z"/>
	<path d="M1201.35-371.63c2.08,2.24,2.31,4.68,0.76,6.12c-1.55,1.43-3.98,1.02-6.05-1.22c-2.08-2.24-2.3-4.7-0.75-6.13
		C1196.85-374.3,1199.27-373.88,1201.35-371.63z M1200.43-370.79c-1.58-1.7-3.31-2.14-4.32-1.21c-1.02,0.95-0.71,2.71,0.86,4.41
		c1.59,1.71,3.32,2.15,4.35,1.21C1202.32-367.31,1202.02-369.07,1200.43-370.79z M1206.22-375.17l-1.74,1.61l5.11,5.52l-0.96,0.89
		l-9.73-10.52l0.96-0.89l3.88,4.19l1.74-1.61L1206.22-375.17z"/>
	<path d="M1212.34-373.14c-0.43-0.51-0.37-1.18,0.08-1.55c0.44-0.37,1.11-0.33,1.54,0.19c0.42,0.5,0.34,1.15-0.09,1.53
		C1213.42-372.61,1212.76-372.64,1212.34-373.14z"/>
	<path d="M1214.71-389.03l1.18-0.91l7.14,9.33l-1.18,0.91L1214.71-389.03z"/>
	<path d="M1221.63-390.42l0.98-0.69l0.83,0.94l0.04-0.03c0.21-1.15,0.56-2.2,1.52-2.89c1.49-1.06,2.85-0.57,4.14,1.24l3.19,4.49
		l-1.19,0.84l-3.08-4.33c-0.95-1.33-1.75-1.6-2.69-0.94c-0.73,0.52-0.97,1.24-1.17,2.46l3.65,5.14l-1.19,0.84L1221.63-390.42z"/>
	<path d="M1238.97-394.92l-2.54-4.09l-1.1,0.69l-0.58-0.94l1.11-0.79l-1.14-2.17l1.03-0.64l1.29,2.08l2-1.24l0.63,1l-2,1.24
		l2.56,4.12c0.57,0.91,1.17,1.25,2.03,0.72c0.26-0.16,0.54-0.47,0.72-0.71l0.82,0.77c-0.34,0.4-0.74,0.84-1.19,1.12
		C1241.03-392.79,1239.88-393.46,1238.97-394.92z"/>
	<path d="M1240.27-407.49l1.26-0.72l1.72,3.03l0.84,1.58c0.3-1.09,0.75-2.1,1.78-2.69c1.58-0.9,2.89-0.28,3.99,1.65l2.72,4.78
		l-1.26,0.72l-2.63-4.61c-0.81-1.42-1.58-1.77-2.58-1.2c-0.78,0.44-1.08,1.13-1.41,2.33l3.12,5.48l-1.26,0.72L1240.27-407.49z"/>
	<path d="M1253.75-405.41c-1.28-2.51-0.39-4.94,1.41-5.86c1.97-1,3.81-0.15,4.94,2.06c0.14,0.28,0.26,0.57,0.32,0.77l-5.22,2.67
		c0.93,1.61,2.48,2.15,3.95,1.4c0.76-0.39,1.25-0.93,1.63-1.6l0.91,0.62c-0.46,0.79-1.1,1.57-2.16,2.11
		C1257.47-402.2,1255.05-402.86,1253.75-405.41z M1258.85-408.82c-0.79-1.55-1.94-2.03-3.15-1.41c-1.1,0.56-1.62,1.94-1,3.53
		L1258.85-408.82z"/>
	<path d="M1266.75-416.63l1.11-0.46l0.6,1.12l0.04-0.02c0.37-1.06,0.96-2.01,1.92-2.41c1.23-0.51,2.14-0.2,2.86,0.61
		c0.45-1.25,1.03-2.23,2-2.64c1.65-0.69,2.89,0.08,3.75,2.13l2.12,5.08l-1.34,0.56l-2.05-4.9c-0.63-1.51-1.36-1.94-2.38-1.52
		c-0.62,0.26-1.1,0.93-1.51,2.07l2.43,5.82l-1.34,0.56l-2.04-4.9c-0.63-1.5-1.37-1.94-2.38-1.52c-0.61,0.25-1.12,0.93-1.51,2.07
		l2.43,5.82l-1.34,0.56L1266.75-416.63z"/>
	<path d="M1283.09-418.56c-0.96-2.73,0.28-4.95,2.29-5.66c2.01-0.71,4.36,0.25,5.33,2.98c0.96,2.72-0.29,4.92-2.3,5.63
		C1286.4-414.9,1284.05-415.84,1283.09-418.56z M1289.28-420.74c-0.66-1.89-2.08-2.83-3.5-2.33s-1.92,2.12-1.26,4
		c0.66,1.89,2.06,2.8,3.48,2.31C1289.42-417.26,1289.94-418.85,1289.28-420.74z"/>
	<path d="M1293.13-426.57l1.15-0.35l0.59,1.48l0.05-0.01c0.26-1.23,0.89-2.17,1.82-2.45c0.37-0.11,0.64-0.15,0.94-0.09l0.12,1.3
		c-0.31-0.02-0.52,0.01-0.85,0.11c-0.69,0.21-1.39,0.97-1.5,2.56l1.64,5.34l-1.39,0.43L1293.13-426.57z"/>
	<path d="M1300.81-428.87l1.16-0.31l0.44,1.17l0.05-0.01c0.59-1,1.29-1.87,2.44-2.17c1.76-0.47,2.87,0.46,3.44,2.61l1.41,5.32
		l-1.41,0.37l-1.36-5.14c-0.42-1.58-1.08-2.12-2.19-1.82c-0.87,0.23-1.34,0.82-1.96,1.9l1.62,6.1l-1.41,0.37L1300.81-428.87z"/>
	<path d="M1311.16-434.35c-0.12-0.55,0.18-1.01,0.75-1.14c0.56-0.13,1.04,0.16,1.16,0.71c0.13,0.58-0.18,1.04-0.74,1.17
		C1311.76-433.48,1311.29-433.77,1311.16-434.35z M1312-431.7l1.42-0.32l1.92,8.47l-1.42,0.32L1312-431.7z"/>
	<path d="M1318.05-433.03l1.18-0.22l0.36,1.2l0.05-0.01c0.67-0.96,1.42-1.77,2.59-1.99c1.79-0.34,2.83,0.67,3.24,2.86l1.02,5.41
		l-1.43,0.27l-0.99-5.22c-0.3-1.6-0.92-2.19-2.05-1.97c-0.88,0.17-1.4,0.72-2.1,1.75l1.17,6.2l-1.43,0.27L1318.05-433.03z"/>
	<path d="M1330.29-424.73c-0.1-0.73,0.26-1.49,0.99-2.13l-0.01-0.06c-0.5-0.21-0.9-0.62-0.99-1.3c-0.1-0.71,0.34-1.36,0.74-1.74
		l-0.01-0.06c-0.63-0.38-1.31-1.12-1.45-2.15c-0.27-1.89,1.05-3.28,2.8-3.53c0.47-0.07,0.92-0.02,1.24,0.05l2.99-0.42l0.16,1.11
		l-1.76,0.25c0.47,0.34,0.84,0.93,0.95,1.68c0.26,1.84-0.97,3.19-2.71,3.44c-0.43,0.06-0.92,0.02-1.32-0.12
		c-0.28,0.31-0.48,0.63-0.41,1.11c0.08,0.55,0.48,0.89,1.64,0.72l1.68-0.24c2-0.28,3.1,0.21,3.3,1.62c0.23,1.6-1.27,3.22-3.94,3.59
		C1332.06-422.62,1330.5-423.24,1330.29-424.73z M1334.63-432.89c-0.18-1.25-1.11-1.89-2.12-1.75c-1.01,0.14-1.73,1-1.55,2.27
		c0.18,1.25,1.13,1.92,2.13,1.78C1334.07-430.73,1334.81-431.64,1334.63-432.89z M1336.72-426.09c-0.11-0.79-0.77-0.97-1.91-0.81
		l-1.49,0.21c-0.32,0.04-0.73,0.05-1.13,0.01c-0.55,0.53-0.74,1.07-0.67,1.58c0.13,0.92,1.15,1.39,2.7,1.17
		C1335.88-424.17,1336.85-425.19,1336.72-426.09z"/>
	<path d="M1345.76-433.29c-0.26-3.13,0.41-5.78,1.68-8.28l0.94,0.34c-1.2,2.4-1.63,5.13-1.41,7.84c0.22,2.71,1.1,5.35,2.68,7.5
		l-0.88,0.51C1347.11-427.65,1346.02-430.15,1345.76-433.29z"/>
	<path d="M1352.64-440.6l6.76-0.3l0.06,1.26l-5.28,0.24l0.16,3.68l4.45-0.2l0.06,1.26l-4.44,0.2l0.19,4.27l5.45-0.24l0.06,1.26
		l-6.94,0.31L1352.64-440.6z"/>
	<path d="M1363.89-437.93l1.2,0l0.13,1.25h0.05c0.83-0.81,1.73-1.47,2.92-1.47c1.83,0,2.65,1.19,2.65,3.42l-0.01,5.51l-1.46,0
		l0.01-5.31c0-1.63-0.49-2.32-1.64-2.33c-0.9,0-1.51,0.44-2.39,1.32l-0.01,6.31l-1.46,0L1363.89-437.93z"/>
	<path d="M1374.32-427.48c0.03-0.74,0.53-1.42,1.37-1.9l0-0.06c-0.45-0.29-0.76-0.77-0.73-1.46c0.04-0.72,0.59-1.27,1.05-1.57
		l0-0.06c-0.55-0.49-1.07-1.35-1.02-2.39c0.09-1.9,1.65-3.03,3.41-2.94c0.48,0.02,0.91,0.15,1.2,0.28l3.02,0.14l-0.05,1.12
		l-1.77-0.08c0.39,0.42,0.65,1.07,0.62,1.82c-0.09,1.85-1.55,2.95-3.31,2.87c-0.43-0.02-0.91-0.16-1.28-0.37
		c-0.33,0.26-0.59,0.53-0.61,1.01c-0.03,0.56,0.31,0.96,1.47,1.02l1.69,0.08c2.02,0.1,3.01,0.79,2.94,2.21
		c-0.08,1.61-1.85,2.92-4.54,2.79C1375.67-425.08,1374.25-425.98,1374.32-427.48z M1380.89-427.61c0.04-0.8-0.57-1.1-1.72-1.16
		l-1.5-0.07c-0.32-0.01-0.73-0.08-1.11-0.2c-0.64,0.42-0.92,0.92-0.95,1.43c-0.04,0.93,0.87,1.58,2.43,1.65
		C1379.71-425.88,1380.85-426.7,1380.89-427.61z M1380.11-434.68c0.06-1.26-0.74-2.07-1.76-2.12s-1.89,0.66-1.95,1.94
		c-0.06,1.26,0.75,2.1,1.76,2.15C1379.15-432.66,1380.05-433.42,1380.11-434.68z"/>
	<path d="M1385.69-430.21l0.91-10.97l1.45,0.12l-0.92,11.06c-0.04,0.45,0.14,0.64,0.36,0.66c0.08,0.01,0.14,0.01,0.31-0.01
		l0.12,1.13c-0.21,0.06-0.46,0.09-0.86,0.06C1385.98-428.24,1385.59-428.98,1385.69-430.21z"/>
	<path d="M1392.51-436.56l1.45,0.16l-0.94,8.63l-1.45-0.16L1392.51-436.56z M1392.56-439.34c0.06-0.56,0.5-0.9,1.07-0.83
		c0.57,0.06,0.93,0.49,0.87,1.04c-0.06,0.59-0.5,0.93-1.07,0.87C1392.86-438.33,1392.5-438.75,1392.56-439.34z"/>
	<path d="M1396.59-428.37l0.85-0.85c0.66,0.71,1.38,1.23,2.41,1.37c1.14,0.16,1.78-0.36,1.89-1.11c0.13-0.89-0.84-1.41-1.73-1.91
		c-1.14-0.61-2.37-1.39-2.17-2.84c0.19-1.36,1.45-2.28,3.32-2.02c1.06,0.15,1.93,0.72,2.53,1.34l-0.83,0.84
		c-0.52-0.53-1.08-0.93-1.84-1.04c-1.09-0.15-1.68,0.35-1.78,1.01c-0.12,0.82,0.73,1.25,1.64,1.75c1.18,0.65,2.49,1.35,2.26,2.98
		c-0.2,1.39-1.47,2.4-3.5,2.11C1398.42-426.9,1397.32-427.57,1396.59-428.37z"/>
	<path d="M1408.57-438.46l1.43,0.26l-0.63,3.43l-0.37,1.75c0.93-0.64,1.93-1.12,3.1-0.91c1.79,0.33,2.4,1.65,1.99,3.83l-1,5.41
		l-1.43-0.26l0.96-5.23c0.3-1.6-0.07-2.37-1.2-2.58c-0.88-0.16-1.56,0.17-2.59,0.87l-1.14,6.2l-1.43-0.26L1408.57-438.46z"/>
	<path d="M1423.68-434.41l1.5,0.38l0.27,6.64c0.06,1.44,0.05,2.59,0.14,4.03l0.06,0.01c0.76-1.23,1.31-2.24,2.06-3.47l3.4-5.71
		l1.46,0.37l-6.51,10.46l-1.66-0.42L1423.68-434.41z"/>
	<path d="M1432.84-424.42c0.85-2.68,3.19-3.79,5.11-3.18c2.11,0.67,2.81,2.56,2.07,4.93c-0.09,0.3-0.22,0.58-0.31,0.77l-5.58-1.76
		c-0.47,1.8,0.26,3.27,1.83,3.76c0.81,0.25,1.54,0.22,2.28,0l0.22,1.07c-0.88,0.24-1.89,0.34-3.02-0.01
		C1433.24-419.53,1431.98-421.69,1432.84-424.42z M1438.87-423.27c0.52-1.66,0.05-2.8-1.25-3.21c-1.17-0.37-2.51,0.25-3.19,1.81
		L1438.87-423.27z"/>
	<path d="M1444.89-425.18l1.14,0.39l-0.39,1.54l0.05,0.02c0.93-0.85,1.99-1.23,2.92-0.92c0.36,0.12,0.61,0.26,0.82,0.48l-0.67,1.12
		c-0.24-0.2-0.42-0.3-0.76-0.41c-0.68-0.23-1.7-0.04-2.72,1.19l-1.8,5.29l-1.38-0.47L1444.89-425.18z"/>
	<path d="M1448.45-415.68c0.23-0.63,0.84-0.9,1.38-0.7c0.54,0.2,0.83,0.8,0.6,1.43c-0.23,0.61-0.83,0.87-1.37,0.67
		S1448.22-415.07,1448.45-415.68z"/>
	<path d="M1452.24-410.4c2.12-1.6,3.75-3.86,4.76-6.38s1.38-5.27,0.95-7.9l0.99-0.05c0.5,2.77,0.35,5.5-0.81,8.41
		c-1.17,2.93-2.94,4.99-5.21,6.67L1452.24-410.4z"/>
</g>
<text transform="matrix(1 0 0 1 1376.3729 -94.4725)"><tspan x="0" y="0" style="font-family:'NotoSansKR-Regular-KSCpc-EUC-H'; font-size:20px;">ITZY -</tspan><tspan x="51.94" y="0" style="font-family:'NotoSansKR-Regular-KSCpc-EUC-H'; font-size:16px;"> 마.피.아. In the morning (English Ver.)</tspan></text>
<g>
	<path d="M959.3-164.89l1.99-2.19l10.96,9.98l-1.99,2.19L959.3-164.89z"/>
	<path d="M969.33-171.92l-2.94,2.94l-1.75-1.75l8.01-8l1.75,1.76l-2.97,2.97l8.72,8.73l-2.09,2.09L969.33-171.92z"/>
	<path d="M983.53-171.06l-1.89-12.47l-4.65,4.16l-1.65-1.85l7.37-6.58l1.19,1.33l1.89,12.47l5.19-4.64l1.65,1.85l-7.91,7.06
		L983.53-171.06z"/>
	<path d="M994.32-185.17l-9.33-4.59l2.46-1.96l3.41,1.91c1.01,0.6,1.97,1.16,3.05,1.77l0.06-0.05c-0.35-1.18-0.66-2.27-1.01-3.39
		l-1.1-3.75l2.41-1.92l2.37,10.13l3.38,4.24l-2.32,1.85L994.32-185.17z"/>
	<path d="M1006.62-194.47l3.59-2.49l0.96,1.38l-3.59,2.49L1006.62-194.47z"/>
	<path d="M1014.28-207.5l6.06-3.58l4.96,8.4l-6.06,3.58L1014.28-207.5z M1020.19-201.59l2.48-1.46l-3.27-5.54l-2.48,1.46
		L1020.19-201.59z M1028.68-209.14l-1.84,1.09l3.78,6.41l-1.82,1.07l-7.48-12.67l1.82-1.07l2.82,4.77l1.85-1.09L1028.68-209.14z"/>
	<path d="M1033.76-206.4c-0.41-0.78-0.17-1.65,0.57-2.04c0.75-0.4,1.61-0.11,2.02,0.67c0.4,0.76,0.17,1.65-0.58,2.04
		C1035.03-205.33,1034.16-205.63,1033.76-206.4z"/>
	<path d="M1044.8-214.84c0.55-0.29,1.08-0.61,1.59-0.94l0.76,1.32c-2.59,1.79-5.63,3.29-8.01,4.42l-0.94-1.47
		c0.48-0.22,0.99-0.46,1.51-0.7l-2.79-5.97l-1.16,0.54l-0.72-1.54l7.49-3.5l0.72,1.54l-1.14,0.54L1044.8-214.84z M1041.54-213.12
		c0.49-0.23,0.97-0.49,1.47-0.74l-2.75-5.88l-1.49,0.7L1041.54-213.12z M1045.26-225.44l6.24,13.34l-1.93,0.9l-6.24-13.34
		L1045.26-225.44z"/>
	<path d="M1054.44-216.22c-0.33-0.81-0.01-1.66,0.77-1.97c0.78-0.32,1.61,0.05,1.94,0.86c0.33,0.8,0.01,1.66-0.78,1.98
		C1055.6-215.04,1054.76-215.42,1054.44-216.22z"/>
	<path d="M1065.63-226.68c1.08,3.06,0.21,5.53-1.88,6.27c-2.11,0.75-4.33-0.62-5.41-3.68c-1.08-3.05-0.21-5.49,1.9-6.24
		C1062.32-231.08,1064.55-229.73,1065.63-226.68z M1063.71-226c-0.73-2.05-1.82-2.9-2.85-2.54c-1.04,0.37-1.34,1.72-0.62,3.77
		c0.73,2.07,1.82,2.92,2.86,2.55C1064.13-222.59,1064.44-223.94,1063.71-226z M1071.49-227.67l-2.02,0.72l2.49,7.01l-1.99,0.71
		l-4.92-13.89l1.99-0.7l1.85,5.23l2.02-0.71L1071.49-227.67z"/>
	<path d="M1075.95-224.01c-0.25-0.84,0.15-1.65,0.95-1.89c0.81-0.25,1.6,0.2,1.85,1.05c0.25,0.83-0.15,1.65-0.97,1.9
		C1076.99-222.72,1076.2-223.18,1075.95-224.01z"/>
	<path d="M1085.2-237.55l2.3-0.57l2.86,11.5l-2.3,0.57L1085.2-237.55z"/>
	<path d="M1092.59-236.36l1.88-0.39l0.41,1.12l0.05-0.01c0.61-0.91,1.38-1.72,2.56-1.97c1.9-0.39,2.98,0.75,3.44,2.96l1.13,5.47
		l-2.3,0.48l-1.08-5.19c-0.28-1.36-0.76-1.76-1.62-1.58c-0.72,0.15-1.1,0.59-1.61,1.36l1.25,6.03l-2.3,0.48L1092.59-236.36z"/>
	<path d="M1110.89-233.83l-0.56-3.93l-1.25,0.18l-0.25-1.73l1.36-0.31l-0.07-2.43l1.93-0.28l0.34,2.39l2.19-0.31l0.26,1.84
		l-2.19,0.31l0.56,3.93c0.14,1.01,0.62,1.43,1.42,1.32c0.29-0.04,0.62-0.18,0.84-0.31l0.62,1.64c-0.45,0.23-1.05,0.49-1.82,0.6
		C1112.17-230.62,1111.17-231.85,1110.89-233.83z"/>
	<path d="M1117.83-244.49l2.34-0.23l0.32,3.2l0.06,1.68c0.65-0.74,1.46-1.46,2.67-1.59c1.93-0.19,2.89,1.06,3.11,3.31l0.56,5.56
		l-2.34,0.23l-0.53-5.27c-0.14-1.39-0.57-1.83-1.44-1.74c-0.73,0.07-1.16,0.47-1.75,1.19l0.61,6.13l-2.34,0.23L1117.83-244.49z"/>
	<path d="M1129.92-237.29c-0.15-2.89,1.8-4.81,3.92-4.92c2.46-0.13,3.83,1.61,3.96,4.07c0.03,0.45,0,0.88-0.05,1.09l-5.51,0.29
		c0.27,1.46,1.27,2.18,2.6,2.11c0.74-0.04,1.36-0.3,1.98-0.73l0.88,1.4c-0.85,0.65-1.96,1.1-3.06,1.16
		C1132.11-232.69,1130.07-234.33,1129.92-237.29z M1135.77-238.51c-0.06-1.2-0.65-1.94-1.8-1.88c-0.94,0.05-1.74,0.76-1.85,2.07
		L1135.77-238.51z"/>
	<path d="M1146.77-242.4l1.92,0.05l0.14,1.2l0.05,0c0.77-0.76,1.62-1.38,2.79-1.35c1.28,0.03,2.02,0.63,2.42,1.63
		c0.84-0.84,1.72-1.52,2.89-1.49c1.9,0.05,2.75,1.42,2.69,3.67l-0.15,5.58l-2.35-0.06l0.14-5.3c0.04-1.39-0.35-1.88-1.2-1.91
		c-0.51-0.01-1.1,0.31-1.76,0.96l-0.16,6.16l-2.34-0.06l0.14-5.3c0.04-1.39-0.37-1.88-1.21-1.91c-0.51-0.01-1.1,0.31-1.74,0.96
		l-0.16,6.16l-2.35-0.06L1146.77-242.4z"/>
	<path d="M1163.17-237.31c0.26-2.96,2.46-4.51,4.69-4.32c2.23,0.19,4.14,2.09,3.88,5.06c-0.26,2.96-2.46,4.51-4.69,4.32
		C1164.82-232.45,1162.91-234.34,1163.17-237.31z M1169.35-236.78c0.14-1.67-0.45-2.83-1.66-2.94c-1.21-0.11-1.99,0.94-2.14,2.61
		c-0.15,1.69,0.45,2.83,1.66,2.94C1168.43-234.06,1169.21-235.09,1169.35-236.78z"/>
	<path d="M1175.89-240.59l1.9,0.25l-0.03,1.59l0.05,0.01c0.8-1.07,1.83-1.59,2.75-1.47c0.49,0.06,0.77,0.18,1.02,0.33l-0.65,1.96
		c-0.3-0.13-0.55-0.22-0.92-0.26c-0.7-0.09-1.6,0.26-2.25,1.48l-0.68,5.3l-2.33-0.3L1175.89-240.59z"/>
	<path d="M1184.62-239.41l1.89,0.33l-0.03,1.2l0.05,0.01c0.9-0.63,1.91-1.1,3.11-0.9c1.91,0.33,2.5,1.79,2.12,4.02l-0.95,5.5
		l-2.32-0.4l0.9-5.22c0.23-1.37-0.06-1.91-0.93-2.06c-0.73-0.12-1.24,0.14-2,0.68l-1.04,6.07l-2.32-0.4L1184.62-239.41z"/>
	<path d="M1196.48-237.24l2.3,0.49l-1.85,8.77l-2.3-0.49L1196.48-237.24z M1196.86-239.96c0.16-0.75,0.81-1.14,1.61-0.97
		c0.78,0.16,1.23,0.78,1.07,1.53c-0.16,0.77-0.82,1.15-1.6,0.99C1197.14-238.58,1196.69-239.19,1196.86-239.96z"/>
	<path d="M1203.02-235.82l1.86,0.47l-0.12,1.19l0.05,0.01c0.95-0.55,1.99-0.95,3.17-0.65c1.88,0.47,2.36,1.98,1.8,4.17l-1.36,5.41
		l-2.28-0.57l1.29-5.13c0.34-1.35,0.08-1.91-0.77-2.12c-0.71-0.18-1.25,0.05-2.04,0.52l-1.51,5.97l-2.28-0.57L1203.02-235.82z"/>
	<path d="M1211.1-222.84c0.22-0.72,0.85-1.2,1.76-1.4l0.02-0.08c-0.36-0.43-0.56-0.97-0.34-1.68c0.2-0.64,0.82-1.11,1.45-1.31
		l0.02-0.06c-0.47-0.61-0.77-1.59-0.46-2.6c0.61-2,2.58-2.59,4.4-2.04c0.47,0.14,0.91,0.38,1.22,0.61l3.09,0.94l-0.5,1.65
		l-1.46-0.44c0.13,0.36,0.15,0.88-0.01,1.42c-0.59,1.93-2.35,2.46-4.19,1.91c-0.34-0.1-0.71-0.3-1.04-0.53
		c-0.29,0.13-0.48,0.27-0.59,0.62c-0.14,0.46,0.12,0.81,1.13,1.11l1.45,0.44c2.07,0.63,3,1.62,2.55,3.12
		c-0.53,1.73-2.73,2.5-5.59,1.63C1212-220.16,1210.64-221.33,1211.1-222.84z M1217.34-221.45c0.19-0.61-0.27-0.92-1.19-1.2
		l-1.04-0.32c-0.52-0.16-0.87-0.32-1.16-0.49c-0.48,0.19-0.75,0.48-0.85,0.83c-0.22,0.72,0.45,1.37,1.69,1.75
		C1216.07-220.48,1217.13-220.78,1217.34-221.45z M1218.36-228.51c0.3-1-0.11-1.74-0.87-1.97s-1.52,0.16-1.82,1.15
		c-0.31,1.03,0.11,1.77,0.86,2S1218.05-227.49,1218.36-228.51z"/>
	<path d="M1229.33-223.89c1.11-2.99,2.85-5.14,5.12-6.92l1.16,1.1c-2.07,1.72-3.58,4.05-4.49,6.49c-0.92,2.48-1.28,5.21-0.84,7.87
		l-1.6,0.07C1228.14-218.14,1228.21-220.87,1229.33-223.89z"/>
	<path d="M1239.26-227.38l6.7,2.8l-0.76,1.83l-4.52-1.89l-1.05,2.53l3.84,1.6l-0.76,1.83l-3.84-1.6l-1.22,2.92l4.68,1.95l-0.76,1.83
		l-6.86-2.87L1239.26-227.38z"/>
	<path d="M1248.71-220.19l1.73,0.82l-0.35,1.14l0.04,0.02c1.04-0.36,2.14-0.54,3.23-0.02c1.75,0.83,1.92,2.4,0.95,4.44l-2.4,5.04
		l-2.12-1.01l2.27-4.78c0.6-1.26,0.46-1.86-0.34-2.23c-0.66-0.32-1.24-0.2-2.11,0.11l-2.64,5.56l-2.12-1.01L1248.71-220.19z"/>
	<path d="M1254.1-205.87c0.36-0.66,1.07-1.01,2.01-1.03l0.04-0.07c-0.26-0.49-0.36-1.06-0.01-1.71c0.32-0.59,1.02-0.92,1.68-1
		l0.03-0.06c-0.34-0.69-0.45-1.71,0.05-2.64c0.99-1.85,3.04-2.04,4.71-1.14c0.44,0.24,0.82,0.55,1.08,0.83l2.85,1.53l-0.82,1.52
		l-1.34-0.72c0.05,0.38-0.03,0.89-0.29,1.39c-0.95,1.78-2.79,1.95-4.48,1.04c-0.31-0.17-0.64-0.43-0.92-0.73
		c-0.31,0.07-0.53,0.17-0.7,0.5c-0.23,0.42-0.04,0.81,0.89,1.31l1.34,0.72c1.9,1.02,2.63,2.17,1.89,3.56
		c-0.86,1.59-3.17,1.91-5.81,0.5C1254.44-203.07,1253.35-204.48,1254.1-205.87z M1259.93-203.28c0.3-0.56-0.09-0.96-0.93-1.41
		l-0.96-0.51c-0.48-0.26-0.8-0.48-1.04-0.7c-0.5,0.09-0.83,0.32-1,0.64c-0.36,0.66,0.17,1.44,1.32,2.05
		C1258.5-202.58,1259.6-202.66,1259.93-203.28z M1262.33-210.01c0.49-0.92,0.24-1.73-0.47-2.11c-0.71-0.38-1.52-0.14-2.01,0.77
		c-0.51,0.94-0.24,1.76,0.45,2.13C1260.99-208.84,1261.82-209.06,1262.33-210.01z"/>
	<path d="M1266.28-203.85l5.18-8.85l2.03,1.19l-5.23,8.93c-0.28,0.47-0.16,0.74,0.04,0.86c0.08,0.05,0.14,0.08,0.29,0.13l-0.63,1.65
		c-0.29-0.04-0.67-0.15-1.15-0.43C1265.4-201.2,1265.44-202.41,1266.28-203.85z"/>
	<path d="M1275.38-205.93l2,1.24l-4.73,7.61l-2-1.24L1275.38-205.93z M1276.66-208.36c0.41-0.65,1.15-0.79,1.84-0.36
		c0.68,0.42,0.89,1.15,0.48,1.8c-0.41,0.67-1.16,0.8-1.84,0.38C1276.45-206.96,1276.25-207.69,1276.66-208.36z"/>
	<path d="M1275.88-196.28l1.71-0.63c0.32,0.96,0.76,1.68,1.45,2.15c0.74,0.5,1.29,0.4,1.6-0.06c0.37-0.56-0.23-1.33-0.81-2.16
		c-0.71-0.99-1.37-2.27-0.54-3.52c0.89-1.33,2.6-1.55,4.3-0.41c1.08,0.72,1.61,1.73,1.91,2.61l-1.67,0.6
		c-0.27-0.74-0.62-1.34-1.17-1.71c-0.68-0.46-1.19-0.38-1.48,0.05c-0.37,0.54,0.19,1.21,0.78,2.03c0.73,1.03,1.5,2.25,0.57,3.64
		c-0.87,1.3-2.6,1.67-4.54,0.37C1277.01-194,1276.21-195.17,1275.88-196.28z"/>
	<path d="M1291.32-199.97l1.89,1.39l-1.9,2.59l-1.09,1.29c0.98-0.12,2.07-0.11,3.05,0.61c1.56,1.15,1.43,2.72,0.1,4.54l-3.31,4.5
		l-1.9-1.39l3.14-4.27c0.82-1.12,0.8-1.74,0.09-2.26c-0.59-0.44-1.18-0.43-2.09-0.29l-3.65,4.96l-1.9-1.39L1291.32-199.97z"/>
	<path d="M1303.76-189.38l1.89,1.6l-2.54,5.42c-0.57,1.24-1.14,2.31-1.71,3.56l0.06,0.05c1.15-0.76,2.11-1.5,3.24-2.27l4.9-3.42
		l1.83,1.55l-10.42,6.71l-2.16-1.83L1303.76-189.38z"/>
	<path d="M1308.1-175.95c1.97-2.13,4.7-2.06,6.26-0.61c1.81,1.67,1.52,3.87-0.16,5.68c-0.3,0.33-0.63,0.61-0.82,0.72l-4.05-3.75
		c-0.86,1.21-0.68,2.42,0.29,3.33c0.54,0.5,1.16,0.77,1.9,0.91l-0.39,1.6c-1.06-0.15-2.15-0.64-2.96-1.39
		C1306.33-171.17,1306.09-173.78,1308.1-175.95z M1313.05-172.61c0.82-0.88,0.94-1.81,0.09-2.6c-0.69-0.64-1.76-0.71-2.77,0.12
		L1313.05-172.61z"/>
	<path d="M1319.63-171.23l1.35,1.36l-1,1.24l0.03,0.03c1.29-0.36,2.42-0.13,3.08,0.53c0.35,0.35,0.5,0.61,0.61,0.88l-1.72,1.15
		c-0.16-0.29-0.3-0.51-0.57-0.77c-0.5-0.5-1.42-0.77-2.69-0.21l-3.79,3.77l-1.66-1.67L1319.63-171.23z"/>
	<path d="M1319.09-160.87c0.64-0.6,1.54-0.6,2.12,0c0.58,0.62,0.53,1.52-0.11,2.13c-0.63,0.59-1.55,0.6-2.13-0.01
		C1318.41-159.36,1318.46-160.27,1319.09-160.87z"/>
	<path d="M1320.54-153.57c2.64-0.55,5.05-1.88,7.02-3.64c1.95-1.73,3.56-3.99,4.42-6.54l1.43,0.67c-0.83,2.77-2.21,5.18-4.58,7.29
		c-2.4,2.14-4.92,3.2-7.79,3.72L1320.54-153.57z"/>
</g>
<g>
	<path d="M1382.63-340.32l1.02-2.78l13.91,5.1l-1.02,2.78L1382.63-340.32z"/>
	<path d="M1389.27-350.61l-1.62,3.83l-2.29-0.96l4.39-10.43l2.29,0.96l-1.63,3.87l11.37,4.79l-1.15,2.73L1389.27-350.61z"/>
	<path d="M1402.74-355.2l-6.46-10.83l-2.74,5.61l-2.23-1.09l4.33-8.88l1.6,0.78l6.46,10.83l3.05-6.25l2.23,1.09l-4.65,9.53
		L1402.74-355.2z"/>
	<path d="M1407.39-372.32l-10.37-0.72l1.54-2.74l3.88,0.48c1.17,0.17,2.27,0.33,3.49,0.49l0.04-0.07c-0.77-0.96-1.46-1.85-2.22-2.76
		l-2.43-3.06l1.51-2.69l6.02,8.49l4.73,2.65l-1.45,2.58L1407.39-372.32z"/>
	<path d="M1414.97-387.63l3.02-4.55l1.75,1.16l-3.02,4.55L1414.97-387.63z"/>
	<path d="M1418.04-406.46l5.51-6.87l9.52,7.63l-5.51,6.86L1418.04-406.46z M1427.56-402.16l2.25-2.81l-6.27-5.03l-2.25,2.81
		L1427.56-402.16z M1434.14-414.75l-1.68,2.09l7.25,5.82l-1.65,2.06l-14.35-11.51l1.65-2.06l5.4,4.33l1.68-2.09L1434.14-414.75z"/>
	<path d="M1441.36-413.74c-0.81-0.74-0.9-1.87-0.2-2.64c0.71-0.79,1.84-0.81,2.66-0.08c0.8,0.73,0.9,1.87,0.19,2.65
		C1443.31-413.03,1442.16-413.02,1441.36-413.74z"/>
	<path d="M1450.85-428.37c0.53-0.57,1.02-1.16,1.49-1.77l1.44,1.25c-2.31,3.18-5.29,6.21-7.64,8.53l-1.71-1.35
		c0.47-0.46,0.97-0.95,1.49-1.45l-5.76-5.89l-1.15,1.12l-1.48-1.52l7.4-7.23l1.48,1.52l-1.13,1.1L1450.85-428.37z M1447.72-424.99
		c0.49-0.47,0.95-0.98,1.43-1.48l-5.68-5.81l-1.47,1.44L1447.72-424.99z M1447.02-441.07l12.88,13.18l-1.9,1.86l-12.88-13.18
		L1447.02-441.07z"/>
	<path d="M1461.68-433.93c-0.72-0.83-0.67-1.96,0.12-2.64c0.8-0.7,1.93-0.59,2.65,0.24c0.71,0.82,0.67,1.96-0.13,2.66
		C1463.53-432.99,1462.39-433.11,1461.68-433.93z"/>
	<path d="M1470.92-450.78c2.47,3.22,2.38,6.49,0.18,8.18c-2.22,1.7-5.39,0.93-7.86-2.29c-2.46-3.21-2.37-6.45-0.15-8.15
		C1465.3-454.74,1468.46-453.99,1470.92-450.78z M1468.91-449.24c-1.65-2.16-3.29-2.74-4.37-1.92c-1.09,0.84-0.94,2.56,0.72,4.71
		c1.67,2.17,3.29,2.77,4.38,1.93C1470.71-445.34,1470.57-447.07,1468.91-449.24z M1477.51-454.22l-2.13,1.63l5.66,7.38l-2.09,1.61
		l-11.21-14.61l2.09-1.61l4.22,5.51l2.13-1.63L1477.51-454.22z"/>
	<path d="M1484.3-451.55c-0.62-0.91-0.43-2.03,0.43-2.61c0.88-0.59,1.98-0.35,2.6,0.56c0.6,0.89,0.43,2.03-0.45,2.62
		C1486.02-450.4,1484.9-450.66,1484.3-451.55z"/>
	<path d="M1490.5-471.18l2.55-1.5l7.52,12.78l-2.55,1.5L1490.5-471.18z"/>
	<path d="M1499.87-472.43l2.13-1.12l0.88,1.21l0.05-0.03c0.42-1.31,1.06-2.55,2.4-3.25c2.14-1.13,3.85-0.12,5.16,2.37l3.25,6.18
		l-2.6,1.37l-3.08-5.86c-0.81-1.54-1.51-1.85-2.49-1.34c-0.81,0.43-1.12,1.09-1.47,2.2l3.58,6.82l-2.6,1.37L1499.87-472.43z"/>
	<path d="M1522.82-475.6l-1.96-4.56l-1.45,0.62l-0.86-2l1.54-0.81l-0.88-2.91l2.24-0.96l1.19,2.77l2.54-1.09l0.92,2.13l-2.54,1.09
		l1.96,4.56c0.5,1.18,1.22,1.52,2.14,1.13c0.33-0.14,0.69-0.43,0.92-0.65l1.28,1.78c-0.47,0.42-1.1,0.93-2,1.32
		C1525.41-472.15,1523.8-473.31,1522.82-475.6z"/>
	<path d="M1527.89-490.78l2.76-1.01l1.39,3.77l0.59,2.02c0.55-1.1,1.31-2.23,2.74-2.76c2.27-0.84,3.83,0.38,4.8,3.03l2.41,6.55
		l-2.76,1.01l-2.29-6.21c-0.6-1.63-1.26-2.03-2.29-1.65c-0.86,0.32-1.26,0.93-1.74,1.98l2.66,7.23l-2.76,1.02L1527.89-490.78z"/>
	<path d="M1544.86-485.85c-1.05-3.46,0.75-6.37,3.29-7.14c2.95-0.89,5.13,0.81,6.03,3.75c0.16,0.54,0.26,1.07,0.26,1.34l-6.6,2
		c0.76,1.69,2.19,2.26,3.78,1.78c0.88-0.27,1.56-0.77,2.19-1.48l1.48,1.43c-0.83,1.05-2.05,1.92-3.38,2.32
		C1548.9-480.92,1545.93-482.3,1544.86-485.85z M1551.59-489.07c-0.43-1.44-1.36-2.16-2.74-1.74c-1.13,0.34-1.88,1.45-1.62,3.06
		L1551.59-489.07z"/>
	<path d="M1564.04-497.06l2.35-0.46l0.51,1.43l0.06-0.01c0.73-1.14,1.6-2.13,3.03-2.41c1.57-0.31,2.63,0.22,3.4,1.33
		c0.79-1.26,1.68-2.33,3.11-2.61c2.33-0.46,3.74,0.97,4.28,3.74l1.35,6.85l-2.88,0.57l-1.28-6.5c-0.34-1.71-0.94-2.2-1.98-1.99
		c-0.63,0.12-1.25,0.68-1.88,1.65l1.49,7.55l-2.86,0.57l-1.28-6.49c-0.34-1.71-0.96-2.2-2-1.99c-0.63,0.12-1.25,0.68-1.86,1.65
		l1.49,7.55l-2.88,0.57L1564.04-497.06z"/>
	<path d="M1585.53-495.3c-0.44-3.69,1.86-6.15,4.64-6.48c2.78-0.33,5.6,1.5,6.04,5.2s-1.86,6.15-4.64,6.48
		C1588.79-489.77,1585.97-491.61,1585.53-495.3z M1593.23-496.23c-0.25-2.09-1.27-3.35-2.78-3.17c-1.51,0.18-2.2,1.65-1.95,3.74
		c0.25,2.11,1.27,3.35,2.78,3.17C1592.79-492.67,1593.48-494.12,1593.23-496.23z"/>
	<path d="M1600.39-502.53l2.39-0.16l0.35,1.96l0.06,0c0.72-1.51,1.86-2.39,3.02-2.47c0.62-0.04,0.98,0.03,1.33,0.15l-0.33,2.57
		c-0.41-0.09-0.73-0.13-1.19-0.1c-0.88,0.06-1.9,0.71-2.41,2.37l0.45,6.66l-2.93,0.2L1600.39-502.53z"/>
	<path d="M1611.49-503.18l2.4-0.03l0.24,1.48l0.06,0c0.97-0.97,2.1-1.79,3.62-1.81c2.42-0.03,3.48,1.63,3.52,4.45l0.1,6.98
		l-2.94,0.04l-0.09-6.62c-0.02-1.74-0.51-2.33-1.61-2.32c-0.92,0.01-1.49,0.46-2.3,1.29l0.1,7.7l-2.94,0.04L1611.49-503.18z"/>
	<path d="M1626.66-503.17l2.94,0.1l-0.38,11.19l-2.94-0.1L1626.66-503.17z M1626.54-506.6c0.03-0.96,0.75-1.58,1.77-1.54
		c1,0.03,1.68,0.7,1.64,1.66c-0.03,0.98-0.75,1.59-1.75,1.56C1627.18-504.96,1626.5-505.62,1626.54-506.6z"/>
	<path d="M1635.09-502.84l2.39,0.2l0.1,1.49l0.06,0c1.05-0.88,2.26-1.58,3.77-1.46c2.41,0.2,3.31,1.96,3.08,4.77l-0.57,6.96
		l-2.93-0.24l0.54-6.6c0.14-1.73-0.29-2.37-1.38-2.46c-0.92-0.08-1.53,0.32-2.42,1.07l-0.63,7.68l-2.93-0.24L1635.09-502.84z"/>
	<path d="M1647.72-488.46c0.13-0.93,0.82-1.64,1.91-2.07l0.01-0.1c-0.52-0.46-0.87-1.09-0.74-2.01c0.12-0.83,0.8-1.52,1.55-1.9
		l0.01-0.08c-0.69-0.67-1.25-1.82-1.07-3.13c0.37-2.59,2.69-3.7,5.05-3.36c0.61,0.09,1.19,0.29,1.62,0.51l4,0.57l-0.31,2.14
		l-1.88-0.27c0.22,0.42,0.35,1.06,0.25,1.75c-0.36,2.5-2.44,3.49-4.82,3.15c-0.44-0.06-0.94-0.24-1.39-0.46
		c-0.33,0.21-0.55,0.43-0.61,0.88c-0.08,0.59,0.3,0.97,1.61,1.16l1.88,0.27c2.67,0.38,4.02,1.42,3.74,3.37
		c-0.32,2.24-2.9,3.61-6.61,3.08C1649.33-485.31,1647.44-486.49,1647.72-488.46z M1655.69-487.92c0.11-0.79-0.51-1.08-1.7-1.25
		l-1.35-0.19c-0.67-0.1-1.14-0.22-1.52-0.38c-0.55,0.33-0.83,0.73-0.9,1.19c-0.13,0.93,0.82,1.61,2.42,1.84
		C1654.31-486.48,1655.56-487.05,1655.69-487.92z M1655.62-496.84c0.19-1.29-0.46-2.13-1.45-2.27c-0.99-0.14-1.85,0.48-2.03,1.77
		c-0.19,1.33,0.48,2.17,1.45,2.31C1654.55-494.89,1655.43-495.52,1655.62-496.84z"/>
	<path d="M1670.13-493.08c0.86-3.89,2.64-6.85,5.14-9.45l1.63,1.16c-2.27,2.49-3.74,5.62-4.45,8.81c-0.71,3.22-0.7,6.66,0.31,9.88
		l-1.96,0.36C1669.64-485.76,1669.27-489.16,1670.13-493.08z"/>
	<path d="M1681.93-499.08l8.76,2.39l-0.65,2.39l-5.9-1.61l-0.9,3.3l5.01,1.37l-0.65,2.39l-5.02-1.37l-1.04,3.82l6.11,1.67
		l-0.65,2.39l-8.97-2.45L1681.93-499.08z"/>
	<path d="M1694.94-491.61l2.27,0.77l-0.27,1.47l0.06,0.02c1.24-0.6,2.57-0.99,4.01-0.5c2.29,0.78,2.74,2.7,1.84,5.37l-2.24,6.61
		l-2.79-0.94l2.12-6.27c0.56-1.65,0.29-2.37-0.75-2.72c-0.87-0.29-1.56-0.06-2.6,0.45l-2.47,7.29l-2.79-0.94L1694.94-491.61z"/>
	<path d="M1703.71-474.62c0.35-0.87,1.19-1.39,2.35-1.55l0.04-0.09c-0.4-0.57-0.59-1.27-0.24-2.13c0.32-0.78,1.15-1.28,1.96-1.47
		l0.03-0.07c-0.51-0.81-0.78-2.07-0.29-3.29c0.98-2.43,3.5-2.94,5.71-2.05c0.57,0.23,1.09,0.57,1.45,0.89l3.75,1.52l-0.81,2
		l-1.76-0.71c0.12,0.46,0.09,1.12-0.17,1.76c-0.95,2.34-3.21,2.8-5.43,1.9c-0.41-0.17-0.85-0.45-1.24-0.78
		c-0.38,0.13-0.63,0.28-0.81,0.71c-0.22,0.56,0.06,1.02,1.29,1.51l1.76,0.71c2.5,1.01,3.56,2.35,2.82,4.17
		c-0.85,2.09-3.68,2.8-7.15,1.4C1704.52-471.18,1702.96-472.78,1703.71-474.62z M1711.31-472.18c0.3-0.74-0.24-1.18-1.35-1.63
		l-1.26-0.51c-0.63-0.25-1.05-0.49-1.39-0.73c-0.61,0.18-0.98,0.51-1.16,0.94c-0.35,0.87,0.41,1.76,1.91,2.37
		C1709.63-471.12,1710.98-471.37,1711.31-472.18z M1713.38-480.86c0.49-1.21,0.06-2.18-0.86-2.55c-0.93-0.38-1.91,0.03-2.4,1.23
		c-0.5,1.24-0.06,2.22,0.85,2.59C1711.88-479.23,1712.88-479.62,1713.38-480.86z"/>
	<path d="M1719.15-473.68l5.36-11.65l2.67,1.23l-5.41,11.76c-0.28,0.62-0.1,0.94,0.15,1.06c0.11,0.05,0.18,0.08,0.38,0.13
		l-0.58,2.13c-0.37-0.02-0.85-0.11-1.49-0.4C1718.38-470.27,1718.28-471.79,1719.15-473.68z"/>
	<path d="M1730.23-477.35l2.63,1.32l-5.02,10.01l-2.63-1.32L1730.23-477.35z M1731.55-480.51c0.43-0.86,1.34-1.12,2.25-0.66
		c0.89,0.45,1.23,1.33,0.8,2.19c-0.44,0.88-1.35,1.13-2.24,0.68C1731.45-478.75,1731.11-479.63,1731.55-480.51z"/>
	<path d="M1731.97-465.37l2.07-0.96c0.5,1.17,1.12,2.02,2.03,2.52c0.98,0.54,1.65,0.37,1.99-0.25c0.41-0.73-0.42-1.63-1.23-2.61
		c-0.98-1.16-1.94-2.68-1.03-4.32c0.97-1.75,3.08-2.2,5.32-0.96c1.42,0.79,2.19,1.99,2.65,3.05l-2.02,0.92
		c-0.42-0.9-0.92-1.61-1.63-2.01c-0.89-0.5-1.53-0.34-1.84,0.22c-0.4,0.72,0.37,1.48,1.18,2.44c1.02,1.21,2.1,2.65,1.09,4.47
		c-0.95,1.71-3.07,2.35-5.62,0.93C1733.62-462.65,1732.51-464.02,1731.97-465.37z"/>
	<path d="M1750.97-471.45l2.49,1.57l-2.14,3.4l-1.24,1.7c1.21-0.23,2.57-0.32,3.85,0.49c2.05,1.29,2.03,3.27,0.52,5.65l-3.73,5.9
		l-2.48-1.57l3.53-5.6c0.93-1.47,0.84-2.23-0.09-2.82c-0.78-0.49-1.5-0.43-2.63-0.17l-4.11,6.51l-2.49-1.57L1750.97-471.45z"/>
	<path d="M1767.59-459.11l2.47,1.88l-2.82,6.93c-0.63,1.58-1.27,2.95-1.91,4.55l0.08,0.06c1.39-1.03,2.54-2.01,3.9-3.04l5.9-4.58
		l2.39,1.82l-12.58,9.05l-2.81-2.15L1767.59-459.11z"/>
	<path d="M1773.92-442.55c2.35-2.75,5.77-2.8,7.79-1.07c2.34,2,2.08,4.76,0.08,7.1c-0.36,0.42-0.76,0.79-0.99,0.94l-5.24-4.49
		c-1.02,1.55-0.73,3.06,0.53,4.14c0.7,0.6,1.49,0.91,2.42,1.05l-0.41,2.02c-1.33-0.14-2.72-0.7-3.77-1.59
		C1771.95-436.5,1771.52-439.74,1773.92-442.55z M1780.27-438.62c0.98-1.14,1.08-2.31-0.01-3.25c-0.9-0.77-2.23-0.81-3.45,0.28
		L1780.27-438.62z"/>
	<path d="M1788.61-437.12l1.74,1.65l-1.2,1.59l0.04,0.04c1.6-0.5,3.02-0.25,3.86,0.55c0.45,0.43,0.64,0.75,0.79,1.08l-2.11,1.5
		c-0.21-0.36-0.4-0.63-0.73-0.94c-0.64-0.61-1.81-0.91-3.37-0.17l-4.6,4.85l-2.13-2.02L1788.61-437.12z"/>
	<path d="M1788.29-424.15c0.78-0.77,1.92-0.79,2.65-0.05c0.75,0.75,0.71,1.89-0.07,2.66c-0.77,0.76-1.92,0.79-2.66,0.04
		C1787.48-422.25,1787.53-423.39,1788.29-424.15z"/>
	<path d="M1790.29-415.08c3.29-0.74,6.28-2.45,8.71-4.68c2.4-2.2,4.38-5.05,5.4-8.26l1.81,0.81c-0.99,3.48-2.66,6.51-5.59,9.2
		c-2.96,2.72-6.09,4.1-9.66,4.79L1790.29-415.08z"/>
</g>
<g>
	<defs>
		<circle id="SVGID_1_" cx="828.25" cy="233.35" r="215"/>
	</defs>
	<clipPath id="SVGID_4_">
		<use xlink:href="#SVGID_1_"  style="overflow:visible;"/>
	</clipPath>
	<g style="clip-path:url(#SVGID_4_);">
		
			<image style="overflow:visible;" width="700" height="700" xlink:href="album03.jpg"  transform="matrix(0.6143 0 0 0.6143 613.25 18.3534)">
		</image>
	</g>
</g>
<g>
	<defs>
		<circle id="SVGID_3_" cx="258.11" cy="257.53" r="215"/>
	</defs>
	<clipPath id="SVGID_5_">
		<use xlink:href="#SVGID_3_"  style="overflow:visible;"/>
	</clipPath>
	<g style="clip-path:url(#SVGID_5_);">
		
			<image style="overflow:visible;" width="700" height="700" xlink:href="album03.jpg"  transform="matrix(0.6143 0 0 0.6143 43.1063 42.5256)">
		</image>
	</g>
</g>
<g>
	<path id="SVGID_x5F_6_x5F_" class="st2" d="M265.33,490.82C136.49,494.8,28.81,393.59,24.82,264.75S122.04,28.22,250.88,24.24
		S487.41,121.46,491.4,250.3S394.17,486.83,265.33,490.82z"/>
	<text>	<textPath  xlink:href="#SVGID_x5F_6_x5F_" startOffset="100.995%">
	</textPath>
</text>
	<g>
		<path d="M9.79,242.84l0.2-3.06l15.31,0.99l-0.2,3.06L9.79,242.84z"/>
		<path d="M13.63,228.51l-0.53,4.27l-2.55-0.31l1.44-11.62l2.55,0.31L14,225.47l12.67,1.57l-0.38,3.04L13.63,228.51z"/>
		<path d="M26.08,218.13l-9.38-9.07l-1.22,6.34l-2.52-0.49l1.93-10.04l1.81,0.35l9.38,9.07l1.36-7.07l2.52,0.48l-2.07,10.77
			L26.08,218.13z"/>
		<path d="M26.63,197.72l-10.58,1.95l0.83-3.14l4.01-0.52c1.21-0.13,2.36-0.25,3.62-0.41l0.02-0.08c-1.02-0.76-1.94-1.48-2.93-2.19
			l-3.23-2.44l0.82-3.08l8.22,6.95l5.42,1.44l-0.78,2.96L26.63,197.72z"/>
		<path d="M31.68,176.47l1.97-5.3l2.04,0.76l-1.97,5.3L31.68,176.47z"/>
		<path d="M32.15,152.74l4.1-8.13l11.27,5.69l-4.1,8.13L32.15,152.74z M42.71,155.05l1.68-3.33l-7.43-3.75l-1.68,3.33L42.71,155.05z
			 M46.68,140.9l-1.25,2.48l8.59,4.34l-1.23,2.44l-17-8.58l1.23-2.44l6.39,3.23l1.25-2.48L46.68,140.9z"/>
		<path d="M55.26,138.58c-0.98-0.58-1.29-1.71-0.74-2.64c0.56-0.94,1.71-1.2,2.68-0.61c0.96,0.57,1.29,1.71,0.73,2.65
			C57.38,138.91,56.22,139.16,55.26,138.58z"/>
		<path d="M63.15,120.12c0.43-0.68,0.81-1.38,1.18-2.08l1.71,0.99c-1.74,3.68-4.19,7.32-6.13,10.13l-2-1.04
			c0.39-0.56,0.81-1.15,1.23-1.76l-6.98-4.89l-0.95,1.36l-1.8-1.26l6.14-8.76l1.8,1.26l-0.94,1.34L63.15,120.12z M60.6,124.15
			c0.4-0.58,0.77-1.18,1.17-1.78l-6.88-4.82l-1.22,1.75L60.6,124.15z M56.83,107.94l15.61,10.93l-1.58,2.25l-15.61-10.93
			L56.83,107.94z"/>
		<path d="M74.39,110.81c-0.88-0.72-1.03-1.88-0.35-2.71c0.69-0.85,1.86-0.94,2.74-0.22c0.87,0.71,1.03,1.88,0.34,2.73
			C76.44,111.43,75.25,111.51,74.39,110.81z"/>
		<path d="M82.28,90.41c3.06,2.88,3.52,6.23,1.55,8.33c-1.98,2.11-5.35,1.85-8.41-1.03c-3.05-2.86-3.5-6.19-1.52-8.3
			C75.88,87.32,79.24,87.55,82.28,90.41z M80.48,92.33c-2.05-1.93-3.82-2.25-4.78-1.23c-0.98,1.04-0.53,2.77,1.52,4.7
			c2.07,1.94,3.82,2.28,4.8,1.24C82.98,96.01,82.55,94.27,80.48,92.33z M88.43,85.8l-1.9,2.02l7.01,6.59l-1.87,1.99L77.79,83.35
			l1.87-1.99l5.23,4.92l1.9-2.02L88.43,85.8z"/>
		<path d="M97.3,86.02c-0.77-0.84-0.75-2.01,0.04-2.74c0.81-0.75,1.97-0.67,2.75,0.17c0.76,0.82,0.76,2.01-0.05,2.75
			C99.24,86.93,98.05,86.84,97.3,86.02z"/>
		<path d="M104.03,62.24l2.41-1.88l9.43,12.09l-2.42,1.88L104.03,62.24z"/>
		<path d="M115.26,58.4L117.3,57l1.06,1.13l0.05-0.04c0.27-1.39,0.77-2.74,2.07-3.64c2.06-1.42,3.94-0.6,5.59,1.81l4.1,5.95
			l-2.51,1.73l-3.88-5.64c-1.02-1.48-1.78-1.71-2.72-1.07c-0.78,0.54-1.02,1.26-1.24,2.44l4.52,6.56l-2.51,1.73L115.26,58.4z"/>
		<path d="M142.06,50.29l-2.47-4.5l-1.43,0.79l-1.08-1.98l1.51-0.99l-1.19-2.91l2.21-1.21l1.5,2.74l2.5-1.37l1.15,2.1l-2.5,1.37
			l2.47,4.5c0.64,1.16,1.41,1.45,2.31,0.95c0.33-0.18,0.67-0.51,0.88-0.76l1.5,1.7c-0.44,0.48-1.04,1.07-1.93,1.56
			C145.08,53.6,143.3,52.56,142.06,50.29z"/>
		<path d="M147.76,33.18l2.75-1.29l1.76,3.77l0.79,2.03c0.48-1.18,1.15-2.41,2.58-3.08c2.27-1.06,3.98,0.06,5.22,2.7l3.06,6.54
			l-2.75,1.29l-2.9-6.2c-0.76-1.63-1.48-1.98-2.51-1.5c-0.86,0.4-1.21,1.07-1.62,2.2l3.38,7.21l-2.75,1.29L147.76,33.18z"/>
		<path d="M167.64,35.97c-1.34-3.5,0.29-6.63,2.86-7.61c2.97-1.14,5.36,0.45,6.5,3.42c0.21,0.54,0.35,1.08,0.37,1.37l-6.66,2.56
			c0.91,1.69,2.43,2.17,4.03,1.55c0.89-0.34,1.56-0.91,2.14-1.69l1.63,1.37c-0.78,1.14-1.97,2.13-3.31,2.64
			C172.17,40.75,169.01,39.55,167.64,35.97z M174.34,32.14c-0.56-1.45-1.57-2.12-2.96-1.59c-1.14,0.44-1.83,1.63-1.44,3.28
			L174.34,32.14z"/>
		<path d="M190.77,21.76l2.41-0.6l0.6,1.45l0.06-0.02c0.7-1.22,1.55-2.28,3.01-2.65c1.61-0.4,2.73,0.09,3.58,1.2
			c0.76-1.34,1.62-2.49,3.09-2.86c2.39-0.59,3.91,0.82,4.62,3.65l1.74,7.01l-2.95,0.73l-1.65-6.65c-0.43-1.75-1.09-2.23-2.15-1.96
			c-0.64,0.16-1.26,0.76-1.86,1.8l1.92,7.73l-2.93,0.73l-1.65-6.65c-0.43-1.75-1.11-2.22-2.17-1.96c-0.64,0.16-1.26,0.76-1.84,1.8
			l1.92,7.73l-2.95,0.73L190.77,21.76z"/>
		<path d="M215.11,22.12c-0.6-3.8,1.69-6.42,4.55-6.87c2.86-0.45,5.84,1.34,6.44,5.14c0.6,3.8-1.69,6.42-4.55,6.87
			C218.69,27.71,215.71,25.92,215.11,22.12z M223.04,20.87c-0.34-2.15-1.44-3.42-2.99-3.17c-1.55,0.24-2.21,1.79-1.87,3.94
			c0.34,2.17,1.44,3.42,2.99,3.17C222.72,24.57,223.38,23.04,223.04,20.87z"/>
		<path d="M232.37,13.86l2.47-0.23l0.42,2.02l0.06-0.01c0.71-1.58,1.87-2.52,3.06-2.63c0.64-0.06,1.02,0.01,1.38,0.12l-0.27,2.66
			c-0.42-0.09-0.76-0.12-1.23-0.07c-0.91,0.08-1.94,0.78-2.43,2.51l0.63,6.88l-3.03,0.28L232.37,13.86z"/>
		<path d="M246.01,12.77l2.48-0.07l0.27,1.52l0.06,0c0.99-1.02,2.14-1.88,3.71-1.93c2.5-0.07,3.63,1.64,3.71,4.55l0.21,7.22
			l-3.04,0.09l-0.2-6.85c-0.05-1.8-0.57-2.41-1.7-2.37c-0.95,0.03-1.54,0.5-2.36,1.37l0.23,7.97l-3.04,0.09L246.01,12.77z"/>
		<path d="M263.87,12.59l3.04,0.09l-0.34,11.59l-3.04-0.09L263.87,12.59z M263.73,9.05c0.03-0.99,0.77-1.63,1.83-1.6
			c1.03,0.03,1.74,0.71,1.71,1.71c-0.03,1.01-0.77,1.65-1.81,1.63C264.4,10.75,263.7,10.06,263.73,9.05z"/>
		<path d="M274.76,13.04l2.47,0.22l0.09,1.54l0.06,0.01c1.1-0.9,2.34-1.62,3.91-1.49c2.49,0.22,3.41,2.04,3.16,4.95l-0.63,7.19
			l-3.03-0.27l0.6-6.82c0.16-1.79-0.28-2.45-1.42-2.55c-0.95-0.08-1.59,0.32-2.5,1.09l-0.7,7.94l-3.03-0.27L274.76,13.04z"/>
		<path d="M289.73,28.25c0.15-0.96,0.88-1.68,2.01-2.11l0.02-0.1c-0.53-0.48-0.89-1.15-0.73-2.09c0.14-0.86,0.86-1.56,1.63-1.94
			l0.01-0.08c-0.71-0.7-1.27-1.9-1.05-3.25c0.43-2.68,2.85-3.78,5.28-3.39c0.63,0.1,1.23,0.32,1.67,0.56l4.13,0.66l-0.35,2.21
			l-1.94-0.31c0.22,0.43,0.35,1.1,0.23,1.82c-0.41,2.58-2.58,3.57-5.04,3.18c-0.45-0.07-0.96-0.26-1.43-0.5
			c-0.35,0.22-0.57,0.43-0.65,0.9c-0.1,0.61,0.3,1.01,1.65,1.23l1.94,0.31c2.76,0.44,4.13,1.54,3.81,3.55
			c-0.37,2.31-3.06,3.68-6.88,3.07C291.34,31.53,289.4,30.28,289.73,28.25z M297.96,28.94c0.13-0.82-0.51-1.13-1.74-1.33l-1.39-0.22
			c-0.69-0.11-1.18-0.25-1.57-0.42c-0.58,0.33-0.87,0.74-0.95,1.21c-0.15,0.96,0.82,1.68,2.48,1.95
			C296.51,30.41,297.82,29.84,297.96,28.94z M298.03,19.71c0.21-1.33-0.44-2.21-1.46-2.37c-1.02-0.16-1.92,0.47-2.13,1.8
			c-0.22,1.37,0.46,2.25,1.46,2.41S297.81,21.08,298.03,19.71z"/>
		<path d="M317.08,24.87c1.05-3.98,3.01-6.98,5.7-9.57l1.64,1.26c-2.45,2.48-4.1,5.67-4.95,8.93c-0.87,3.3-0.99,6.87-0.07,10.23
			l-2.05,0.3C316.28,32.43,316.03,28.9,317.08,24.87z"/>
		<path d="M331.66,19.8l8.92,2.94l-0.8,2.44l-6.01-1.98l-1.11,3.36l5.11,1.68l-0.8,2.44L331.85,29l-1.28,3.89l6.23,2.05l-0.8,2.44
			l-9.14-3.01L331.66,19.8z"/>
		<path d="M346.74,29.01l2.3,0.95l-0.37,1.5l0.06,0.02c1.32-0.53,2.72-0.85,4.18-0.25c2.32,0.95,2.65,2.97,1.54,5.67l-2.75,6.68
			l-2.81-1.16l2.61-6.33c0.68-1.67,0.46-2.43-0.59-2.86c-0.88-0.36-1.61-0.17-2.72,0.29l-3.03,7.37l-2.81-1.16L346.74,29.01z"/>
		<path d="M356.45,47.99c0.43-0.87,1.34-1.34,2.55-1.41l0.05-0.09c-0.36-0.62-0.5-1.36-0.08-2.21c0.39-0.78,1.29-1.23,2.14-1.36
			l0.04-0.07c-0.46-0.88-0.64-2.19-0.03-3.42c1.21-2.43,3.85-2.75,6.05-1.66c0.57,0.29,1.08,0.67,1.43,1.03l3.74,1.87l-1,2
			l-1.76-0.88c0.08,0.48,0,1.16-0.32,1.8c-1.16,2.33-3.53,2.63-5.76,1.53c-0.41-0.2-0.84-0.54-1.21-0.91
			c-0.4,0.1-0.68,0.24-0.89,0.67c-0.28,0.56-0.02,1.06,1.21,1.67l1.76,0.88c2.5,1.25,3.48,2.71,2.58,4.52
			c-1.04,2.09-4.02,2.6-7.49,0.87C357.01,51.6,355.54,49.82,356.45,47.99z M364.1,51.11c0.37-0.74-0.15-1.23-1.26-1.79l-1.26-0.63
			c-0.63-0.31-1.05-0.59-1.37-0.87c-0.65,0.14-1.05,0.45-1.27,0.87c-0.43,0.87,0.28,1.85,1.78,2.6
			C362.28,52.07,363.7,51.92,364.1,51.11z M366.93,42.32c0.6-1.2,0.24-2.24-0.69-2.7s-1.97-0.13-2.57,1.08
			c-0.62,1.24-0.24,2.29,0.67,2.74C365.25,43.88,366.32,43.56,366.93,42.32z"/>
		<path d="M374.11,51.2l6.59-11.51l2.64,1.51l-6.65,11.62c-0.35,0.61-0.19,0.96,0.06,1.11c0.11,0.06,0.18,0.1,0.38,0.17l-0.8,2.14
			c-0.38-0.05-0.87-0.19-1.5-0.55C373,54.64,373.04,53.07,374.11,51.2z"/>
		<path d="M387.73,49.59l2.57,1.63l-6.2,9.79l-2.57-1.63L387.73,49.59z M389.41,46.47c0.53-0.84,1.5-1.01,2.39-0.45
			c0.88,0.55,1.13,1.5,0.6,2.34c-0.54,0.86-1.51,1.03-2.38,0.48C389.13,48.27,388.87,47.32,389.41,46.47z"/>
		<path d="M390,63.25l2.23-0.75c0.38,1.26,0.92,2.2,1.8,2.83c0.95,0.67,1.66,0.56,2.07-0.03c0.5-0.71-0.25-1.72-0.97-2.82
			c-0.88-1.31-1.69-2.98-0.57-4.57c1.2-1.69,3.42-1.92,5.58-0.38c1.37,0.97,2.02,2.3,2.38,3.44l-2.18,0.71
			c-0.33-0.97-0.76-1.76-1.45-2.25c-0.86-0.61-1.53-0.53-1.91,0.01c-0.49,0.69,0.21,1.57,0.94,2.65c0.91,1.36,1.86,2.97,0.61,4.72
			c-1.17,1.66-3.42,2.07-5.88,0.32C391.38,66.24,390.39,64.7,390,63.25z"/>
		<path d="M411.97,60.51l2.36,1.92l-2.63,3.22l-1.48,1.59c1.27-0.09,2.68-0.01,3.9,0.99c1.94,1.58,1.68,3.61-0.17,5.87l-4.56,5.6
			l-2.36-1.92l4.33-5.31c1.14-1.4,1.14-2.19,0.26-2.91c-0.74-0.6-1.49-0.63-2.69-0.51l-5.03,6.18l-2.36-1.92L411.97,60.51z"/>
		<path d="M430.7,78.29l2.25,2.28l-3.9,6.69c-0.87,1.53-1.73,2.84-2.62,4.39l0.07,0.07c1.57-0.85,2.89-1.69,4.44-2.55l6.71-3.83
			l2.18,2.21L425.63,95l-2.57-2.61L430.7,78.29z"/>
		<path d="M436.16,97.72c2.84-2.44,6.34-1.96,8.14,0.13c2.08,2.42,1.38,5.2-1.03,7.27c-0.44,0.38-0.9,0.7-1.16,0.81l-4.65-5.41
			c-1.28,1.43-1.23,3.02-0.11,4.32c0.62,0.72,1.38,1.16,2.31,1.45l-0.74,2c-1.34-0.35-2.67-1.14-3.6-2.22
			C433.2,103.6,433.26,100.22,436.16,97.72z M442.04,102.74c1.18-1.01,1.47-2.19,0.5-3.32c-0.79-0.93-2.16-1.18-3.58-0.25
			L442.04,102.74z"/>
		<path d="M451.66,107.29l1.5,1.98l-1.49,1.42l0.04,0.05c1.72-0.24,3.13,0.25,3.85,1.21c0.39,0.51,0.53,0.87,0.63,1.24l-2.41,1.18
			c-0.15-0.41-0.3-0.71-0.59-1.08c-0.55-0.73-1.69-1.24-3.42-0.73l-5.51,4.18l-1.84-2.42L451.66,107.29z"/>
		<path d="M450.35,122.16c0.94-0.65,2.09-0.47,2.71,0.41c0.63,0.9,0.39,2.05-0.55,2.7c-0.92,0.64-2.09,0.47-2.72-0.43
			C449.18,123.95,449.44,122.79,450.35,122.16z"/>
		<path d="M451.86,133.45c3.48-0.12,6.85-1.3,9.74-3.11c2.86-1.79,5.41-4.3,7.05-7.38l1.68,1.17c-1.66,3.35-3.94,6.12-7.43,8.3
			c-3.53,2.2-6.97,3.01-10.74,3.04L451.86,133.45z"/>
	</g>
</g>
</svg>
